<!DOCTYPE svg PUBLIC "-//W3C//DTD SVG 1.1//EN" "http://www.w3.org/Graphics/SVG/1.1/DTD/svg11.dtd">
<!-- Uploaded to: SVG Repo, www.svgrepo.com, Transformed by: SVG Repo Mixer Tools -->
<svg width="64px" height="64px" viewBox="0 0 24 24" xmlns="http://www.w3.org/2000/svg" fill="#000000" transform="rotate(-45)">
<g id="SVGRepo_bgCarrier" stroke-width="0"/>
<g id="SVGRepo_tracerCarrier" stroke-linecap="round" stroke-linejoin="round" stroke="#CCCCCC" stroke-width="0.672"/>
<g id="SVGRepo_iconCarrier">
<path d="M15.915 6.702a6.249 6.249 0 0 0-.77-.45h.01A3.612 3.612 0 0 1 13 3.026V2.5h-1v13.96a3.965 3.965 0 0 0-2.508-.417C7.562 16.3 5.996 17.61 6 18.963s1.578 2.249 3.508 1.993c1.867-.246 3.38-1.481 3.474-2.788H13V6.996a5.411 5.411 0 0 1 2.159.703 6.036 6.036 0 0 1 2.176 2.15 6.365 6.365 0 0 1 .25 5.94l.481.211a6.982 6.982 0 0 0-2.15-9.298z"/>
<path fill="none" d="M0 0h24v24H0z"/>
</g>
</svg>